# xmcd
#
# Track frame offsets:
#	150
#	22017
#	47866
#	72159
#	96137
#	118784
#	135224
#	151888
#	168534
#	191147
#	221223
#	242567
#	262224
#	285132
#
# Disc length: 4176 seconds
#
# Revision: 1
# Processed by: cddbd v1.5.2PL0 Copyright (c) Steve Scherf et al.
# Submitted via: audiograbber 1.83.01
#
DISCID=cb104e0e
DTITLE=Various Artist - Desert Blues 3 - CD2
DYEAR=2008
DGENRE=Ethnic
TTITLE0=Dhafer Youssef - A kind of love
TTITLE1=Seckou Keita Quartett - Tounga
TTITLE2=Ali Farka Touré - Penda Yoro
TTITLE3=Boubacar Traoré - Kar Kar
TTITLE4=Malouma - Yarab
TTITLE5=Bassekou Kouyaté - Lobi Traoré - Banani
TTITLE6=Abdallah Ag Oumbadougou - Imidiwan
TTITLE7=N´Gou Bagayoko - Kulu
TTITLE8=Tinariwen - Izarharh Ténéré
TTITLE9=Oumou Sangaré - Djorolen
TTITLE10=Habib Koité - Mali Ba
TTITLE11=Amadou and Mariam - Ce n´ est pas bon
TTITLE12=Getatchew Mekurya - Eywat Setenafegagn
TTITLE13=Gigi - Ethiopia
EXTD=www.networkmedien.de
EXTT0=
EXTT1=
EXTT2=
EXTT3=
EXTT4=
EXTT5=
EXTT6=
EXTT7=
EXTT8=
EXTT9=
EXTT10=
EXTT11=
EXTT12=
EXTT13=
PLAYORDER=
